<svg width="28" height="22" viewBox="0 0 28 22" fill="none" xmlns="http://www.w3.org/2000/svg">
<g clip-path="url(#clip0_157_4704)">
<path d="M27.8959 17.1639C27.8959 18.3125 27.4403 19.4142 26.6294 20.2275C25.8184 21.0409 24.7181 21.4994 23.5695 21.5028H0V4.32639C0 3.179 0.455813 2.07847 1.26714 1.26714C2.07847 0.455813 3.17869 0 4.32608 0H27.8959V17.1639Z" fill="white"/>
<path d="M20.2324 12.7605H22.0167H22.2348C22.4183 12.7243 22.5832 12.6246 22.7006 12.479C22.8179 12.3335 22.8802 12.1513 22.8767 11.9644C22.8754 11.7787 22.8115 11.599 22.6949 11.4545C22.5784 11.3099 22.416 11.2093 22.2348 11.1686C22.1627 11.1554 22.0888 11.1554 22.0167 11.1686H20.2324V12.7605Z" fill="url(#paint0_linear_157_4704)"/>
<path d="M21.8111 1.45057C20.9872 1.45057 20.197 1.7778 19.6144 2.36042C19.0318 2.94303 18.7043 3.73321 18.7043 4.55715V7.77938H23.403C24.3915 7.77938 25.123 8.34439 25.123 9.23018C25.1133 9.60163 24.9614 9.95501 24.6986 10.2178C24.4359 10.4805 24.0825 10.6324 23.7111 10.6421C24.7124 10.7063 25.4825 11.2714 25.4825 12.1443C25.4825 13.0173 24.6223 13.6976 23.5055 13.6976H18.6914V20.0007H23.2488C23.6562 20.0024 24.0598 19.9238 24.4366 19.7691C24.8135 19.6144 25.1562 19.3865 25.4449 19.099C25.7335 18.8116 25.9625 18.4701 26.1187 18.0939C26.275 17.7177 26.3557 17.3144 26.3557 16.907V1.39917L21.8111 1.45057Z" fill="url(#paint1_linear_157_4704)"/>
<path d="M22.6457 9.46132C22.6503 9.28306 22.5887 9.10949 22.4724 8.97427C22.3562 8.83905 22.1936 8.75172 22.0167 8.72949H20.2324V10.2188H22.0167C22.1936 10.1966 22.3562 10.1093 22.4724 9.97407C22.5887 9.83884 22.6503 9.66528 22.6457 9.48702V9.46132Z" fill="url(#paint2_linear_157_4704)"/>
<path d="M4.66075 1.45068C3.83681 1.45068 3.04664 1.77791 2.46402 2.36053C1.88141 2.94315 1.55418 3.73332 1.55418 4.55726V12.2598C2.37968 12.6933 3.29258 12.9347 4.22448 12.9659C4.43798 12.9902 4.65411 12.9679 4.85821 12.9007C5.06231 12.8335 5.24935 12.723 5.40668 12.5766C5.56401 12.4303 5.68786 12.2516 5.76962 12.0529C5.85138 11.8542 5.88904 11.6402 5.88025 11.4255V7.80519H8.55056V11.4126C8.55056 12.8119 7.67761 13.9801 4.6993 13.9801C3.6256 13.9811 2.55604 13.8473 1.51562 13.5821V20.1165H6.06015C6.46813 20.1165 6.87202 20.036 7.24894 19.8799C7.62586 19.7237 7.9684 19.4951 8.25689 19.2066C8.54537 18.9182 8.77429 18.5756 8.93042 18.1987C9.08654 17.8218 9.16673 17.4176 9.16673 17.0096V1.52778L4.66075 1.45068Z" fill="url(#paint3_linear_157_4704)"/>
<path d="M13.2355 1.45057C12.8275 1.45057 12.4236 1.53076 12.0467 1.68689C11.6698 1.84301 11.3272 2.07193 11.0388 2.36042C10.7503 2.6489 10.5217 2.99144 10.3655 3.36836C10.2094 3.74528 10.1289 4.14917 10.1289 4.55715V8.614C11.4066 7.75579 12.958 7.40343 14.481 7.62549C15.3035 7.67719 16.1196 7.80182 16.92 7.99783V9.28158C16.1906 8.89911 15.3915 8.66766 14.5706 8.60115C12.8889 8.48562 11.8878 9.3071 11.8878 10.7321C11.8878 12.157 12.8889 13.0042 14.5706 12.863C15.3915 12.7965 16.1906 12.5653 16.92 12.1829V13.4666C16.1209 13.6716 15.3044 13.8003 14.481 13.8515C12.9582 14.0674 11.409 13.7155 10.1289 12.863V20.0264H14.6734C15.0814 20.0264 15.4853 19.9462 15.8622 19.7901C16.2391 19.634 16.5817 19.4051 16.8702 19.1166C17.1586 18.8281 17.3876 18.4855 17.5437 18.1086C17.6998 17.7317 17.78 17.3278 17.78 16.9198V1.39917L13.2355 1.45057Z" fill="url(#paint4_linear_157_4704)"/>
</g>
<defs>
<linearGradient id="paint0_linear_157_4704" x1="24.9701" y1="5.34983" x2="32.6904" y2="5.34983" gradientUnits="userSpaceOnUse">
<stop stop-color="#007940"/>
<stop offset="0.23" stop-color="#00873F"/>
<stop offset="0.74" stop-color="#40A737"/>
<stop offset="1" stop-color="#5CB531"/>
</linearGradient>
<linearGradient id="paint1_linear_157_4704" x1="24.9702" y1="4.06282" x2="32.6915" y2="4.06282" gradientUnits="userSpaceOnUse">
<stop stop-color="#007940"/>
<stop offset="0.23" stop-color="#00873F"/>
<stop offset="0.74" stop-color="#40A737"/>
<stop offset="1" stop-color="#5CB531"/>
</linearGradient>
<linearGradient id="paint2_linear_157_4704" x1="24.9702" y1="2.77529" x2="32.6907" y2="2.77529" gradientUnits="userSpaceOnUse">
<stop stop-color="#007940"/>
<stop offset="0.23" stop-color="#00873F"/>
<stop offset="0.74" stop-color="#40A737"/>
<stop offset="1" stop-color="#5CB531"/>
</linearGradient>
<linearGradient id="paint3_linear_157_4704" x1="7.75937" y1="4.063" x2="15.6412" y2="4.063" gradientUnits="userSpaceOnUse">
<stop stop-color="#1F286F"/>
<stop offset="0.47" stop-color="#004E94"/>
<stop offset="0.83" stop-color="#0066B1"/>
<stop offset="1" stop-color="#006FBC"/>
</linearGradient>
<linearGradient id="paint4_linear_157_4704" x1="16.2839" y1="4.06283" x2="23.844" y2="4.06283" gradientUnits="userSpaceOnUse">
<stop stop-color="#6C2C2F"/>
<stop offset="0.17" stop-color="#882730"/>
<stop offset="0.57" stop-color="#BE1833"/>
<stop offset="0.86" stop-color="#DC0436"/>
<stop offset="1" stop-color="#E60039"/>
</linearGradient>
<clipPath id="clip0_157_4704">
<rect width="27.8959" height="21.49" fill="white"/>
</clipPath>
</defs>
</svg>
